<svg xmlns="http://www.w3.org/2000/svg" viewBox="0 0 50 50.02" fill="#4044c9"><path d="M47.5 25.01H6.67V6.67a5 5 0 0 1 5-5h1.66v3.41A4.18 4.18 0 0 0 10 9.17a.83.83 0 0 0 .83.83h6.67a.83.83 0 0 0 .83-.83A4.18 4.18 0 0 0 15 5.08V.83a.83.83 0 0 0-.83-.82h-2.5A6.66 6.66 0 0 0 5 6.67v18.34H2.5a2.5 2.5 0 1 0 0 5c.22 6.07 2.82 12.5 6.72 14.41a3.33 3.33 0 1 0 5.3.59h21a3.33 3.33 0 1 0 5.3-.59c3.89-1.91 6.49-8.34 6.73-14.41a2.5 2.5 0 1 0 0-5zM15 6.8a2.53 2.53 0 0 1 1.52 1.53h-4.71A2.51 2.51 0 0 1 15 6.8zm12.5 19.87h11.67v9.16H27.5zm-25.83.83a.83.83 0 0 1 .83-.83h23.33v1.66H2.5a.83.83 0 0 1-.83-.83zm10 20.83a1.67 1.67 0 1 1 1.66-1.66 1.66 1.66 0 0 1-1.66 1.66zm26.66 0a1.67 1.67 0 1 1 1.553-.793 1.67 1.67 0 0 1-1.553.793zm0-5H11.67c-3.67 0-7.21-6.32-7.5-13.32h21.66v8.33a.85.85 0 0 0 .84.84.84.84 0 0 0 .83-.84v-.83h1.67v.83a.83.83 0 0 0 1.66 0v-.83h1.67v.83a.84.84 0 0 0 .83.84.85.85 0 0 0 .84-.84v-.83h1.66v.83a.85.85 0 0 0 .84.84.84.84 0 0 0 .83-.84v-.83h1.67v.83a.83.83 0 1 0 1.66 0v-8.33h5c-.29 7-3.83 13.32-7.5 13.32zm9.17-15h-6.67v-1.66h6.67a.83.83 0 1 1 0 1.66zM15 12.5a.83.83 0 0 0-.83-.83.84.84 0 0 0-.84.83v.83a.85.85 0 0 0 .84.84.84.84 0 0 0 .83-.84zm0 4.17a.84.84 0 0 0-.83-.84.85.85 0 0 0-.84.84v.83a.84.84 0 0 0 .84.83.83.83 0 0 0 .83-.83zm-.83 3.34a.84.84 0 0 0-.84.83v.84a.84.84 0 0 0 .84.83.83.83 0 0 0 .83-.83v-.84a.83.83 0 0 0-.83-.83zm4.16-7.51a.83.83 0 0 0-1.66 0v.83a.83.83 0 1 0 1.66 0zm0 4.17a.83.83 0 0 0-1.66 0v.83a.83.83 0 1 0 1.66 0zm-.83 3.34a.83.83 0 0 0-.83.83v.84a.83.83 0 0 0 1.66 0v-.84a.83.83 0 0 0-.83-.83zm-5.83-7.51a.84.84 0 0 0-.84-.83.83.83 0 0 0-.83.83v.83a.84.84 0 0 0 .83.84.85.85 0 0 0 .84-.84zm0 4.17a.85.85 0 0 0-.84-.84.84.84 0 0 0-.83.84v.83a.83.83 0 0 0 .83.83.84.84 0 0 0 .84-.83zm-.84 3.34a.83.83 0 0 0-.83.83v.84a.83.83 0 0 0 .83.83.84.84 0 0 0 .84-.83v-.84a.84.84 0 0 0-.84-.83z"/></svg>