<svg xmlns="http://www.w3.org/2000/svg" viewBox="0 0 50 43.33"  fill="#4044c9"><path d="M49.17 25h-.84v-2.5a4.16 4.16 0 0 0-2.5-3.83V5.84a.84.84 0 0 0-.5-.77 3.22 3.22 0 0 0 .5-1.73A3.33 3.33 0 0 0 40.835.456 3.33 3.33 0 0 0 39.17 3.34 3.24 3.24 0 0 0 39.63 5H10.37a3.24 3.24 0 0 0 .46-1.66 3.33 3.33 0 1 0-6.66 0 3.22 3.22 0 0 0 .5 1.73.84.84 0 0 0-.5.77v12.83a4.16 4.16 0 0 0-2.5 3.81v2.5H.83a.84.84 0 0 0-.83.84V37.5a.84.84 0 0 0 .83.84h.84v4.16a.84.84 0 0 0 .83.84h3.33a.85.85 0 0 0 .84-.84v-4.16h36.66v4.16a.85.85 0 0 0 .84.84h3.33a.84.84 0 0 0 .83-.84v-4.16h.84a.84.84 0 0 0 .83-.84V25.84a.84.84 0 0 0-.83-.84zM42.5 1.67a1.67 1.67 0 1 1-1.181.489A1.67 1.67 0 0 1 42.5 1.67zm-35 0a1.67 1.67 0 1 1 0 3.34 1.67 1.67 0 1 1 0-3.34zm-1.67 5h38.34v11.67h-3.36a4.2 4.2 0 0 0 .86-2.5v-1.67A4.19 4.19 0 0 0 37.5 10h-6.67a4.17 4.17 0 0 0-4.16 4.17v1.67a4.12 4.12 0 0 0 .85 2.5h-5a4.12 4.12 0 0 0 .85-2.5v-1.67A4.17 4.17 0 0 0 19.21 10H12.5a4.19 4.19 0 0 0-4.17 4.17v1.67a4.2 4.2 0 0 0 .86 2.5H5.83zM40 14.17v1.67a2.5 2.5 0 0 1-2.5 2.5h-6.67a2.5 2.5 0 0 1-2.5-2.5v-1.67a2.5 2.5 0 0 1 2.5-2.5h6.67a2.5 2.5 0 0 1 2.5 2.5zm-18.33 0v1.67a2.5 2.5 0 0 1-2.5 2.5H12.5a2.5 2.5 0 0 1-2.5-2.5v-1.67a2.5 2.5 0 0 1 2.5-2.5h6.67a2.5 2.5 0 0 1 2.5 2.5zM3.33 22.5a2.5 2.5 0 0 1 2.5-2.5h38.34a2.5 2.5 0 0 1 2.5 2.5V25H3.33zM5 41.67H3.33v-3.33H5zm41.67 0H45v-3.33h1.67zm1.66-5H1.67v-10h46.66zm-2.47-3.33H4.17a.83.83 0 1 0 0 1.66h41.69a.83.83 0 0 0 0-1.66z"/></svg>