<svg xmlns="http://www.w3.org/2000/svg" viewBox="0 0 50 50"><circle cx="25" cy="25" r="25" fill="#4044c9" opacity=".6"/><path d="M28.18,31.05l10.09,5.83a4.81,4.81,0,0,1,2.33,3.46l.31,2.16H9.09l.31-2.16a4.81,4.81,0,0,1,2.33-3.46l10.09-5.83Z" fill="#d32b39"/><path d="M24.36,42.5V34.86a.64.64,0,0,1,1.28,0V42.5Z" fill="#bf2734"/><circle cx="19.91" cy="24.04" r="5.73" fill="#533222"/><path d="M21.78,27.23v3.82L21.14,33,25,34.86,28.78,33l-.64-1.9V27.23Z" fill="#fdc9a6"/><path d="M28.14,27.23v2A4.76,4.76,0,0,1,25,30.41h0a4.79,4.79,0,0,1-3.2-1.24V27.23Z" fill="#e6af89"/><path d="M32.64 18.32v-4.61a3.82 3.82 0 0 0-.13-1v-.13A3.73 3.73 0 0 0 30.08 10 4.5 4.5 0 0 0 26 7.5h-.5a8.78 8.78 0 0 0-7.5 4.22 8.93 8.93 0 0 0-1.27 4.65v2.58l8.27-.63z" fill="#533222"/><path d="M25,29.14h0A4.78,4.78,0,0,1,21,27a14.35,14.35,0,0,1-2.44-8v-2l1.8-.45a6.69,6.69,0,0,0,4.6-4v0a6.68,6.68,0,0,0,4.57,4l1.74.44v2.06A14.37,14.37,0,0,1,29,27h0a4.78,4.78,0,0,1-4,2.14Z" fill="#fdc9a6"/><g fill="#533222"><path d="M28.78,19a.59.59,0,0,1-.29-.07l-1.24-.63a.64.64,0,0,1-.28-.86.63.63,0,0,1,.85-.28h0l1.23.63a.64.64,0,0,1,.27.86.63.63,0,0,1-.56.34Z"/><circle cx="27.66" cy="19.75" r=".87"/><path d="M21.18 19a.63.63 0 0 1-.63-.63.61.61 0 0 1 .35-.57l1.27-.64a.64.64 0 0 1 .58 1.14h0l-1.27.64a.72.72 0 0 1-.3.06z"/><circle cx="22.26" cy="19.75" r=".87"/></g><path d="M24.81 26h-.45a.63.63 0 0 1-.63-.63.64.64 0 0 1 .63-.64h.45a1.64 1.64 0 0 0 1.06-.38.643.643 0 0 1 .81 1 2.92 2.92 0 0 1-1.87.67zm.83-2.59h-1.28a.64.64 0 0 1-.63-.64V21.5a.64.64 0 1 1 1.27 0v.64h.64a.63.63 0 0 1 .63.63.64.64 0 0 1-.63.64z" fill="#e6af89"/><path d="M12.27 42.5V40a.64.64 0 0 1 1.28 0v2.5zm24.18 0V40a.64.64 0 0 1 1.28 0v2.5z" fill="#bf2734"/><path d="M18.6 17.68h-.88a1.67 1.67 0 0 0-1.67 1.67v1.12a1.68 1.68 0 0 0 1.67 1.67h1.55zm12.72 0h.88a1.67 1.67 0 0 1 1.67 1.67h0v1.12a1.68 1.68 0 0 1-1.67 1.67h-1.47z" fill="#fdc9a6"/><g fill="#eaeae8"><path d="M25 34.23l-3.18-3.82-2.55 1.91.73 2.61a2.54 2.54 0 0 0 5-.7z"/><path d="M25,34.23l3.18-3.82,2.55,1.91L30,34.93a2.54,2.54,0,0,1-5-.7Z"/></g><ellipse cx="17.83" cy="32.9" rx="5.89" ry="5.06" transform="matrix(.208936 -.977929 .977929 .208936 -18.07 43.46)" fill="#533222"/></svg>