<svg xmlns="http://www.w3.org/2000/svg" viewBox="0 0 50 50" fill="#4044c9"><path d="M49.17 10.83H30.83a.84.84 0 0 0-.83.84v20h-4.17v-.84h.84a.83.83 0 1 0 0-1.66h-8.34a.83.83 0 0 0 0 1.66h.84v.84h-8.34v-.84h.84a.83.83 0 1 0 0-1.66H3.33a.83.83 0 1 0 0 1.66h.84v.84H.83a.83.83 0 0 0-.83.83v16.67a.83.83 0 0 0 .83.83h48.34a.83.83 0 0 0 .83-.83v-37.5a.84.84 0 0 0-.83-.84zm-28.34 20h3.34v.84h-3.34zm-15 0h3.34v.84H5.83zm7.5 17.5H1.67v-10h11.66zm0-11.66H1.67v-3.34h11.66zM30 48.33H15v-15h15zm18.33 0H31.67v-22.5h16.66zm0-24.16H31.67V12.5h16.66zM17.5 46.67h10a.84.84 0 0 0 .83-.84v-10a.83.83 0 0 0-.83-.83h-10a.83.83 0 0 0-.83.83v10a.84.84 0 0 0 .83.84zm.83-10h8.34V45h-8.34zm15-13.34a.84.84 0 0 0 .84-.83v-3.33a.85.85 0 0 0-.84-.84.84.84 0 0 0-.83.84v3.33a.83.83 0 0 0 .83.83zm0 8.34a.85.85 0 0 0 .84-.84V27.5a.84.84 0 0 0-.84-.83.83.83 0 0 0-.83.83v3.33a.84.84 0 0 0 .83.84zM2 14.81a.87.87 0 0 0 .5.19h25a.83.83 0 0 0 .83-.83.81.81 0 0 0-.19-.54l-8.33-10a.85.85 0 0 0-.64-.3h-.84V.83A.83.83 0 0 0 17.5 0h-5a.83.83 0 0 0-.83.83v2.5h-.84a.85.85 0 0 0-.64.3l-8.33 10A.84.84 0 0 0 2 14.81zM13.33 1.67h3.34v1.66h-3.34zM11.22 5h7.56l6.94 8.33H4.28z"/></svg>