<svg xmlns="http://www.w3.org/2000/svg" viewBox="0 0 50 48.39" fill="#4044c9"><path d="M46 29.03v-2.42a4 4 0 0 0-4-4H28.23A4 4 0 0 0 25 24.19a4 4 0 0 0-3.23-1.61H8.06a4 4 0 0 0-4 4V29a4 4 0 0 0-4 4v14.58a.8.8 0 0 0 .81.8h48.32a.8.8 0 0 0 .81-.8V33.06a4 4 0 0 0-4-4.03zM8.06 46.77H1.61V33.06A2.43 2.43 0 0 1 4 30.64h1.65a2.42 2.42 0 0 1 2.41 2.42zM5.65 29.03v-2.42a2.41 2.41 0 0 1 2.41-2.42h13.71a2.42 2.42 0 0 1 2.42 2.42v9.68a4 4 0 0 0-2.42-.81H12.1a4 4 0 0 0-2.42.81v-3.23a4 4 0 0 0-4.03-4.03zm18.54 10.48v2.42H9.68v-2.42a2.43 2.43 0 0 1 2.42-2.42h9.67a2.43 2.43 0 0 1 2.42 2.42zm16.13 7.26H9.68v-3.23h30.64zm0-4.84H25.81v-2.42a2.43 2.43 0 0 1 2.42-2.42h9.67a2.43 2.43 0 0 1 2.42 2.42zm0-8.87v3.23a4 4 0 0 0-2.42-.81h-9.67a4 4 0 0 0-2.42.81v-9.68a2.42 2.42 0 0 1 2.42-2.42h13.71a2.41 2.41 0 0 1 2.41 2.42v2.42a4 4 0 0 0-4.03 4.03zm8.07 13.71h-6.45V33.06a2.42 2.42 0 0 1 2.41-2.42H46a2.43 2.43 0 0 1 2.42 2.42zM37.1 0H12.9a.8.8 0 0 0-.8.8v17.74a.8.8 0 0 0 .8.81h24.2a.8.8 0 0 0 .8-.81V.8a.8.8 0 0 0-.8-.8zm-.81 17.74H13.71V1.61h22.58zM34.68 2.42H15.32a.8.8 0 0 0-.8.8v12.91a.8.8 0 0 0 .8.8h19.36a.8.8 0 0 0 .8-.8V3.19a.8.8 0 0 0-.8-.77zm-16 12.9L21 12.55l2.31 2.77zm6.72 0l-1.68-2L27 9.36l4.47 6zm8.49 0h-.4l-5.83-7.74a.8.8 0 0 0-1.13-.16.74.74 0 0 0-.13.12l-3.75 4.5-1.06-1.27a.81.81 0 0 0-1.14-.1.47.47 0 0 0-.1.1l-3.79 4.55h-.43V4.03h17.74zM21 9.67a2.42 2.42 0 1 0-1.711-.709A2.42 2.42 0 0 0 21 9.67zm0-3.22a.81.81 0 1 1-.81.8.8.8 0 0 1 .81-.8z"/></svg>