<svg xmlns="http://www.w3.org/2000/svg" viewBox="0 0 50 50"><circle cx="25" cy="25" r="25" fill="#4044c9" opacity=".6"/><g fill="#ea9d2d"><path d="M28.12,30.77l11.54,5.77a4.67,4.67,0,0,1,2.55,3.55l.29,2.1H7.5l.29-2.1a4.67,4.67,0,0,1,2.55-3.55l11.54-5.77Z"/><path d="M10.34 36.54l.91-.46v6.11H7.5l.29-2.1a4.67 4.67 0 0 1 2.55-3.55zm32.16 5.65h-3.75v-6.11l.91.46a4.67 4.67 0 0 1 2.55 3.55zM33 33.2l-8 6.49-8-6.49 4.86-2.43h6.24L30.66 32z"/></g><g fill="#f6bb92"><path d="M29.38,31.4l-1.26-.63v-2.5H21.88v2.5l-1.26.63L25,33.27Z"/><path d="M28.12 28.27v.91a5.53 5.53 0 0 1-6.23 0v-.91z"/></g><path d="M28.12 28.27v.91a5.53 5.53 0 0 1-6.23 0v-.91z" fill="#e6af89"/><path d="M11.25 36.08v6.11H7.5l.29-2.1a4.67 4.67 0 0 1 2.55-3.55zm31.25 6.11h-3.75v-6.11l.91.46a4.67 4.67 0 0 1 2.55 3.55z" fill="#cbcbcb"/><path d="M25,29.52A5.54,5.54,0,0,1,19.86,26a15.52,15.52,0,0,1-1.11-5.75v-5a6.25,6.25,0,0,1,12.5,0v5A15.52,15.52,0,0,1,30.14,26,5.54,5.54,0,0,1,25,29.52Z" fill="#f6bb92"/><g fill="#683b0d"><path d="M28.75,18.44H26.88a.63.63,0,1,1,0-1.25h1.87a.63.63,0,1,1,0,1.25Z"/><circle cx="27.66" cy="19.68" r=".78"/><path d="M23.12,18.44H21.25a.63.63,0,1,1,0-1.25h1.87a.63.63,0,1,1,0,1.25Z"/><circle cx="22.34" cy="19.68" r=".78"/></g><path d="M25.62,23.44H24.38a.63.63,0,0,1-.63-.63V21.73a.63.63,0,0,1,1.25,0v.46h.62a.63.63,0,1,1,0,1.25Z" fill="#e6af89"/><path d="M19 17.65h-1.11a1.63 1.63 0 0 0-1.64 1.63v1.1a1.71 1.71 0 0 0 .17.74 1.65 1.65 0 0 0 1.47.9h1.17zm12 0h1.09a1.63 1.63 0 0 1 1.64 1.63v1.1a1.71 1.71 0 0 1-.17.74 1.65 1.65 0 0 1-1.47.9h-1.15z" fill="#f6bb92"/><path d="M24.38 22.81h1.24a2.49 2.49 0 0 1 2.5 2.5h-6.24a2.49 2.49 0 0 1 2.5-2.5zm6.87-4.37l-.08-.32a5.8 5.8 0 0 0-2.42-3.43h0A17.39 17.39 0 0 1 22.28 16h-2.67a3.38 3.38 0 0 1-3-1.86l-.09-.14a3.31 3.31 0 0 1 .27-3.43v-.06a6.45 6.45 0 0 1 5.23-2.68h2.16a6.41 6.41 0 0 1 4.53 1.88H29a2.6 2.6 0 0 1 2.35 1.44h0a6.86 6.86 0 0 1 .52 4.71l-.62 2.58z" fill="#683b0d"/><path d="M22.5,34.69,25,36.56l2.5-1.87L25,33.27Z" fill="#cbcbcb"/><path d="M33 33.2l-8 6.49-8-6.49 2.68-1.34 5.3 4.7L30.66 32z" fill="#c38325"/><g fill="#eaeae8"><path d="M21.25,30.31l3.75,3-5,3.92L19.38,32Z"/><path d="M28.75 30.31l-3.75 3 5 3.92.62-5.23z"/></g></svg>