<svg xmlns="http://www.w3.org/2000/svg" viewBox="0 0 50 50" fill="#4044c9"><path d="M37 33.64v-1.78h1a.81.81 0 0 0 0-1.62h-1.51l.32-1h.28a.81.81 0 1 0 0-1.62h-6.91a.81.81 0 0 0 0 1.62h.28l.33 1h-5V12h23a1.22 1.22 0 0 0 .45-2.36L25.31.06h-.62L.77 9.63A1.22 1.22 0 0 0 1.22 12h23v18.24h-5l.33-1h.28a.81.81 0 1 0 0-1.61h-6.92a.81.81 0 1 0 0 1.61h.28l.32 1H12a.81.81 0 0 0 0 1.62h1v1.78a1.67 1.67 0 0 0 1.67 1.67h9.56v8.88a2.55 2.55 0 0 0-1.73 2.41v1.78h-1.82a.81.81 0 0 0 0 1.62h8.64a.81.81 0 0 0 0-1.62h-1.78V46.6a2.55 2.55 0 0 0-1.73-2.41v-8.88h9.56A1.67 1.67 0 0 0 37 33.64zm-1.93-4.37l-.33 1h-2.25l-.32-1zm11.6-18.9h-11L28.36 3zm-43.42 0L21.64 3l-7.34 7.37zm13.3 0L25 2l8.41 8.41zm1.24 18.9l-.32 1h-2.25l-.33-1zm8.13 17.33v1.78h-1.84V46.6a.92.92 0 1 1 1.84 0zm9.45-12.91H14.58v-1.83h20.84v1.78l-.05.05zm-24.19 3.46H3.26L1.62 24a.81.81 0 0 0-.905-.705.81.81 0 0 0-.705.905L1.73 38v11.19a.81.81 0 1 0 1.62 0v-3.51h7v3.51a.81.81 0 0 0 1.62 0v-7.1a2.54 2.54 0 0 0-.81-4.94zm-.81 6.91h-7v-1.84h7zm.81-3.46H3.35v-1.83h7.83a.92.92 0 1 1 0 1.83z"/><path d="M49.29 23.33a.82.82 0 0 0-.91.71l-1.64 13.11h-7.92a2.54 2.54 0 0 0-.82 4.94v7.1a.81.81 0 0 0 1.62 0v-3.51h7v3.51a.81.81 0 0 0 1.62 0V38L50 24.24a.81.81 0 0 0-.71-.91zm-2.64 20.73h-7v-1.84h7zm0-3.46h-7.83a.92.92 0 0 1-.876-1.402.92.92 0 0 1 .876-.428h7.83z"/></svg>