<svg xmlns="http://www.w3.org/2000/svg" viewBox="0 0 50 50" fill="#4044c9"><path d="M43 50a.73.73 0 1 0 0-1.46h-9.41v-8.95h4.9c5.37 0 5.16-4.19 5-9h5v18.65a.73.73 0 1 0 1.46 0V25.08a.73.73 0 0 0-.73-.73h-5.7v-2.64h1.76a1.94 1.94 0 0 0 1.94-1.94V1.94A1.94 1.94 0 0 0 45.28 0H18a1.94 1.94 0 0 0-2 1.94v17.83a1.94 1.94 0 0 0 2 1.94h9.84v2.64H11.16c1.62-1.62 1.78-4.19 1.78-6.34a.73.73 0 0 0-.73-.73h-4v-1.39A4.12 4.12 0 0 0 13.13 12a.92.92 0 0 0-.35-.86 4 4 0 0 0-4.53.47v-1.3c2.34-1.59 2.21-5.64-.43-6.85C6.79 3 5.65 4.88 5.41 5.59a4.14 4.14 0 0 0 1.38 4.67v1.36a4.12 4.12 0 0 0-3.37-.9c-.5.1-1.36.32-1.47.92-.47 2.59 2.46 4.75 4.84 4.26v1.38H2.54a.72.72 0 0 0-.73.73c0 2.15.11 4.72 1.74 6.34H.73a.73.73 0 0 0-.516.214.73.73 0 0 0-.214.516v24.19a.73.73 0 1 0 1.46 0v-3.42H14.7v3.42a.73.73 0 1 0 1.46 0V30.62h25.9v2H29.7c-2.9 0-5 .75-6.38 2.24a5.58 5.58 0 0 0-1.38 4 .73.73 0 0 0 .73.65h9.46v1.32h-2.88a.73.73 0 1 0 0 1.46h2.88v6.17h-9.38a.73.73 0 1 0 0 1.46M9.48 12.55a2.44 2.44 0 0 1 2.18-.31 2.69 2.69 0 0 1-3.38 2.15 2.52 2.52 0 0 1 1.2-1.84zm-4.87 1.52a2.53 2.53 0 0 1-1.22-1.83 2.68 2.68 0 0 1 3.38 2.15 2.58 2.58 0 0 1-2.16-.32zm36.55 23.25a3.63 3.63 0 0 1-2.67.81H23.41c.35-2.79 2.92-4.05 6.29-4h12.37a4.83 4.83 0 0 1-.91 3.19zm4.59-17.55a.48.48 0 0 1-.47.48h-1.76v-2.64h2.23zM18 20.25a.49.49 0 0 1-.48-.48v-2.16H37.3a23.25 23.25 0 0 0 0 2.64zm19.51 1.46a15.87 15.87 0 0 0 .6 2.64h-2.67v-2.64zm-3.49 0v2.64h-4.77v-2.64zM6.64 7a2.44 2.44 0 0 1 .92-2 2.68 2.68 0 0 1 0 4 2.53 2.53 0 0 1-.92-2zM3.28 18.74h8.18c-.12 4-1.3 5.52-4.09 5.52s-3.97-1.51-4.09-5.52zM14.7 44.38H1.46v-6.15H14.7zm0-7.61H1.46v-6.15H14.7zM1.46 29.15v-3.33h37.18a9.73 9.73 0 0 0 2.47 3.33zM42.05 28c-4.43-3.75-4.51-14.65 0-18.35zM43.2 7.74c-.59-.66-4.93 1.68-5.77 8.4h-20V1.94a.49.49 0 0 1 .57-.48h27.28a.48.48 0 0 1 .47.48v14.2h-2.23v-7.8a.72.72 0 0 0-.32-.6zm.32 21.41v-3.33h5v3.33zm-38.2 5.27h5.57a.73.73 0 1 0 0-1.46H5.32a.73.73 0 1 0 0 1.46zm0 7.58h5.57a.73.73 0 1 0 0-1.46H5.32a.73.73 0 1 0 0 1.46z"/></svg>